<?xml version="1.0" encoding="utf-8"?>
<!-- Generator: Adobe Illustrator 25.4.1, SVG Export Plug-In . SVG Version: 6.00 Build 0)  -->
<svg version="1.1" id="Layer_1" xmlns="http://www.w3.org/2000/svg" xmlns:xlink="http://www.w3.org/1999/xlink" x="0px" y="0px"
	 viewBox="0 0 27.7 27.7" style="enable-background:new 0 0 27.7 27.7;" xml:space="preserve">
<style type="text/css">
	.st0{fill:#FFFFFF;}
</style>
<path class="st0" d="M13.9,0L13.9,0C6.2,0,0,6.2,0,13.9v0c0,7.6,6.2,13.8,13.8,13.8h0c7.6,0,13.8-6.2,13.8-13.8v0
	C27.7,6.2,21.5,0,13.9,0z M9.9,20.9h-3v-11h3V20.9z M8.4,8.6c-1,0-1.8-0.8-1.8-1.8s0.8-1.8,1.8-1.8s1.8,0.8,1.8,1.8S9.3,8.6,8.4,8.6
	z M21.9,20.9h-3v-5.6c0-3.4-4-3.1-4,0v5.6h-3v-11h3v1.8c1.4-2.6,7-2.8,7,2.5V20.9z"/>
</svg>
