<svg xmlns="http://www.w3.org/2000/svg" xmlns:xlink="http://www.w3.org/1999/xlink" preserveAspectRatio="xMidYMid meet" version="1.0" viewBox="0.0 -0.6 460.4 500.6" zoomAndPan="magnify" style="fill: rgb(0, 0, 0);" role="img" aria-label="Earth Hour Carrying the Earth"><defs><clipPath id="__id3672_sjdqzxh49r"><path d="M 430 460 L 460.449219 460 L 460.449219 488 L 430 488 Z M 430 460"></path></clipPath></defs><g><g id="__id3673_sjdqzxh49r"><path d="M 392.328125 178.691406 C 392.292969 164.253906 391.566406 153.703125 385.691406 140.816406 C 376.597656 120.882812 368.699219 103.070312 355.496094 85.726562 C 347.816406 75.683594 340.175781 65.605469 332.503906 55.5625 C 330.070312 52.339844 327.226562 49.464844 324.128906 46.78125 C 320.117188 43.335938 315.695312 40.242188 311.210938 37.273438 C 311.085938 37.175781 310.988281 37.113281 310.894531 37.054688 C 299.558594 28.300781 287.964844 19.234375 275.167969 12.726562 C 272.230469 11.246094 269.265625 9.984375 266.261719 8.941406 C 264.238281 7.898438 262.21875 6.882812 260.199219 5.839844 C 252.964844 2.144531 245.636719 2.652344 237.515625 2.175781 C 223.871094 1.355469 210.320312 1.484375 196.738281 2.714844 C 195.601562 2.808594 194.9375 3.632812 194.71875 4.578125 C 193.359375 4.640625 192.03125 4.675781 190.675781 4.675781 C 180.21875 4.769531 169.765625 4.960938 159.433594 5.210938 C 146.546875 5.9375 125.289062 5.210938 114.675781 8.242188 L 111.644531 12.789062 C 82.042969 40.839844 47.144531 66.644531 22.886719 99.277344 L 19.851562 100.792969 C 19.660156 109.957031 18.839844 119.050781 17.667969 128.148438 C 16.785156 128.273438 15.964844 128.808594 15.652344 129.914062 C 11.792969 143.058594 8.101562 156.132812 5.605469 169.589844 C 3.710938 179.792969 5.855469 190.6875 6.996094 201.082031 C 6.964844 201.308594 6.964844 201.496094 6.929688 201.683594 L 7.691406 208.539062 C 7.691406 208.566406 7.691406 208.566406 7.71875 208.601562 C 8.195312 213.242188 8.734375 217.535156 9.617188 221.644531 C 11.007812 228.308594 13.183594 234.5625 17.007812 241.386719 C 27.683594 260.53125 37.003906 277.617188 51.5625 293.851562 C 60.03125 303.234375 68.464844 312.648438 76.929688 322.0625 C 88.050781 334.441406 105.578125 340.726562 119.445312 349.828125 C 122.761719 351.972656 126.144531 353.867188 129.585938 355.605469 C 134.828125 358.765625 140.167969 361.386719 145.632812 362.996094 C 146.234375 363.1875 146.832031 363.3125 147.433594 363.476562 C 149.296875 364.234375 151.160156 364.988281 153.023438 365.746094 C 160.539062 368.839844 167.808594 367.734375 175.925781 367.542969 C 188.75 367.261719 201.414062 366.15625 214.050781 364.105469 L 221.664062 364.800781 C 252.871094 359.363281 284.078125 341.203125 313.644531 327.652344 C 317.148438 326.074219 320.628906 324.523438 324.070312 323.070312 L 326.339844 321.554688 C 326.5625 321.238281 326.816406 320.953125 327.039062 320.636719 C 341.695312 301.621094 377.039062 254.558594 377.988281 252.03125 C 379.914062 247.039062 381.808594 242.015625 383.640625 236.992188 C 386.453125 229.195312 389.042969 221.328125 391.222656 213.304688 C 394.222656 202.285156 392.390625 190.058594 392.328125 178.691406" style="fill: rgb(77, 139, 209);"></path></g><g id="__id3674_sjdqzxh49r"><path d="M 105.171875 134.207031 C 105.660156 137.460938 109.671875 138.226562 112.128906 137.039062 C 119.480469 133.511719 124.914062 128.582031 129.628906 122.398438 C 130.269531 123.167969 130.410156 123.910156 130.628906 125.527344 C 131.488281 131.863281 133.144531 137.40625 135.65625 143.238281 C 136.933594 146.203125 141.058594 146.027344 143.097656 144.195312 C 153.761719 134.632812 161.816406 121.289062 173.726562 113.351562 C 174.359375 112.925781 174.84375 112.425781 175.183594 111.882812 C 175.9375 110.882812 176.296875 109.570312 175.902344 108 C 172.425781 94.191406 166.980469 81.191406 166.644531 66.90625 C 166.691406 66.867188 166.742188 66.847656 166.789062 66.804688 C 173.742188 60.527344 181.613281 56.8125 190.257812 53.394531 C 204.414062 47.800781 219.101562 44 232.160156 35.957031 C 236.445312 33.324219 234.296875 27.609375 229.769531 27.128906 C 210.054688 25.035156 204.488281 -0.21875 184.394531 0 C 162.054688 0.242188 138.667969 -0.609375 116.550781 2.933594 C 110.292969 3.933594 108.804688 8.949219 104.394531 13.085938 C 93.867188 22.957031 82.878906 32.335938 72.058594 41.878906 C 61.191406 51.460938 50.558594 61.285156 40.398438 71.621094 C 33.441406 78.699219 26.308594 92.269531 17.449219 96.703125 C 15.945312 97.453125 15.160156 99.195312 15.101562 100.792969 C 14.8125 108.761719 14.21875 116.652344 13.378906 124.578125 C 12.921875 128.875 9.800781 138.710938 11.136719 143.683594 C 12.078125 147.199219 16.503906 148.203125 19.054688 145.777344 C 40.808594 125.078125 59.726562 101.589844 82.371094 81.886719 C 80.648438 96.445312 76.011719 112.996094 83.535156 124.285156 C 85.371094 127.046875 88.492188 127.183594 90.976562 125.242188 C 94.496094 122.492188 98.273438 121.085938 102.230469 119.988281 C 102.941406 124.730469 104.417969 129.222656 105.171875 134.207031" style="fill: rgb(246, 148, 68);"></path></g><g id="__id3675_sjdqzxh49r"><path d="M 224.039062 74.824219 C 223.007812 73.410156 220.652344 73.007812 219.707031 74.824219 C 214.859375 84.15625 211.996094 93.707031 208.996094 103.753906 C 208.65625 104.898438 209.316406 105.625 210.175781 105.832031 C 209.320312 106.183594 208.628906 107.039062 208.820312 108.230469 C 211.769531 126.9375 218.835938 136.605469 233.789062 146.742188 C 240.277344 151.144531 247.140625 154.761719 254.558594 157.292969 C 266.429688 161.351562 274.769531 171.382812 284.289062 179.511719 C 286.449219 181.355469 289.871094 180.203125 289.9375 177.171875 C 290.164062 166.378906 291.417969 155.605469 290.667969 144.820312 C 290.117188 136.828125 285.609375 136.863281 278.910156 133.234375 C 269.597656 128.183594 260.886719 122.078125 251.566406 117.015625 C 248.28125 115.230469 245.046875 113.996094 241.597656 112.589844 C 238.886719 111.488281 247.28125 100.890625 248.09375 99.683594 C 249.066406 98.234375 248.242188 96.601562 247.042969 95.671875 C 238.78125 89.3125 230.242188 83.355469 224.039062 74.824219" style="fill: rgb(246, 148, 68);"></path></g><g id="__id3676_sjdqzxh49r"><path d="M 391.359375 213.300781 C 391.359375 213.300781 361.082031 204.25 344.304688 199.253906 C 325.4375 193.640625 312.394531 199.375 293.761719 204.976562 C 291.371094 205.695312 291.246094 208.597656 293.113281 209.9375 C 299.90625 214.816406 306.632812 219.777344 313.398438 224.675781 C 317.5 227.644531 326.671875 236.664062 331.859375 236.664062 C 348.804688 236.664062 384.488281 234.105469 384.488281 234.105469 L 385.78125 232.992188 L 392.640625 216.449219 L 391.359375 213.300781" style="fill: rgb(246, 148, 68);"></path></g><g id="__id3677_sjdqzxh49r"><path d="M 195.101562 241.5625 C 200.582031 241.046875 206.109375 240.667969 211.539062 239.808594 C 212.355469 239.675781 213.324219 238.742188 213.4375 237.910156 C 214.480469 230.238281 215.460938 222.554688 216.648438 214.902344 C 217.71875 208 218.296875 193.710938 224.199219 188.972656 C 225.300781 188.089844 225.449219 186.125 224.714844 184.988281 C 217.285156 173.523438 211.046875 162.722656 211.097656 148.746094 C 211.105469 145.972656 207.1875 143.890625 205.230469 146.3125 C 198.265625 154.9375 191.3125 163.546875 184.691406 172.445312 C 179.621094 179.261719 173.242188 197.898438 164.113281 194.777344 C 138.8125 186.128906 121.605469 174.089844 119.398438 146.015625 C 119.257812 144.203125 117.988281 143.105469 116.054688 143.105469 C 115.527344 143.105469 115.003906 143.105469 114.476562 143.105469 C 112.875 143.105469 111.800781 143.714844 111.253906 145.128906 C 105.839844 159.082031 98.925781 168.929688 101.933594 183.757812 C 105.257812 200.164062 116.984375 211.074219 122.996094 225.867188 C 126.160156 233.652344 135.644531 234.925781 143.195312 237.027344 C 159.171875 241.464844 176.960938 242.398438 193.445312 242.519531 C 194.191406 242.527344 194.738281 242.105469 195.101562 241.5625" style="fill: rgb(246, 148, 68);"></path></g><g id="__id3678_sjdqzxh49r"><path d="M 369.777344 249.609375 C 369.679688 249.648438 369.589844 249.664062 369.492188 249.710938 C 353.507812 257.238281 338.910156 266.503906 325.894531 278.339844 C 310.394531 265.746094 298.386719 249.941406 287.5625 233.21875 C 286.242188 231.183594 283.269531 229.996094 281.078125 231.519531 C 271.925781 237.878906 263.246094 244.878906 254.195312 251.375 C 251.050781 247.964844 247.636719 244.914062 244.175781 241.734375 C 242.425781 240.121094 239.152344 239.667969 237.476562 241.734375 C 232.253906 248.148438 227.449219 254.644531 223.472656 261.921875 C 221.863281 264.863281 220.824219 268.113281 219.761719 271.265625 C 218.382812 275.351562 207.773438 277.378906 204.175781 278.878906 C 195.269531 282.59375 186.570312 286.808594 177.902344 291.03125 C 174.0625 292.898438 166.472656 295.46875 164.085938 299.550781 C 160.414062 305.8125 163.4375 320.023438 163.4375 327.082031 C 163.4375 330.839844 164.6875 331.996094 167.40625 334.785156 C 175.457031 343.054688 182.914062 351.949219 190.425781 360.707031 C 195.695312 366.851562 196.074219 368.566406 203.984375 368.707031 C 209.589844 368.804688 217.394531 370.453125 222.910156 369.371094 C 245.289062 364.988281 265.902344 355.820312 286.359375 346.015625 C 301.824219 338.609375 323.3125 333.253906 333.941406 319.34375 C 348.171875 300.730469 360.691406 280.828125 373.039062 260.925781 C 373.8125 259.675781 376.234375 256.234375 376.449219 255.683594 C 376.664062 255.136719 376.730469 254.554688 376.6875 253.96875 C 376.84375 250.632812 372.808594 248.179688 369.777344 249.609375" style="fill: rgb(246, 148, 68);"></path></g><g id="__id3679_sjdqzxh49r"><path d="M 435.445312 446.363281 L 425.09375 456.101562 C 427.941406 460.175781 437.855469 466.949219 437.855469 466.949219 L 437.1875 469.671875 C 435.957031 474.664062 432.6875 480.125 433.390625 485.109375 L 433.957031 484.769531 C 440.859375 478.28125 457.066406 473.0625 458.507812 463.355469 C 450.769531 459.527344 442.667969 451.277344 435.445312 446.363281" style="fill: rgb(246, 148, 68);"></path></g><g id="__id3680_sjdqzxh49r"><path d="M 338.464844 468.167969 C 338.859375 473.128906 341.925781 479.382812 343.96875 483.992188 L 342.011719 486 C 338.421875 489.683594 332.835938 492.730469 330.914062 497.386719 L 331.570312 497.375 C 340.8125 495.285156 357.429688 499.003906 363.59375 491.367188 C 358.859375 484.140625 356.0625 472.921875 352.324219 465.023438 L 338.464844 468.167969" style="fill: rgb(246, 148, 68);"></path></g><g id="__id3681_sjdqzxh49r"><path d="M 331.566406 312.316406 C 333.324219 309.84375 355.964844 269.257812 356.878906 266.394531 L 337.644531 264.300781 C 328.785156 274.566406 325.480469 291.726562 318.019531 302.742188 C 311.769531 308.265625 295.289062 318.597656 289.5625 324.765625 L 288.257812 325.808594 C 286.203125 325.574219 281.054688 327.664062 279.007812 327.433594 C 278.679688 330.359375 284.675781 331.332031 286.460938 333.902344 C 281.996094 339.328125 273.8125 351.894531 273.8125 351.894531 C 278.523438 352.128906 288.332031 348.9375 292.207031 346.113281 C 294.457031 341.917969 296.21875 336.785156 299.566406 333.304688 C 306.761719 327.300781 329.808594 314.785156 331.566406 312.316406" style="fill: rgb(246, 148, 68);"></path></g><g id="__id3682_sjdqzxh49r"><path d="M 388.570312 213.121094 C 387.726562 213.183594 385.261719 213.492188 384.371094 213.601562 C 383.253906 215.726562 380.769531 220.609375 379.710938 219.929688 C 378.804688 219.25 379.144531 215.179688 379.144531 214.269531 C 378.941406 204.898438 377.957031 195.609375 377.554688 186.246094 L 369.960938 195.4375 L 365.078125 205.445312 L 358.425781 208.101562 L 359.222656 219.367188 L 362.902344 230.828125 C 362.902344 230.828125 367.417969 232.710938 369.839844 235.675781 C 369.300781 237.105469 369.03125 238.601562 368.863281 240.117188 C 368.84375 240.347656 368.8125 240.574219 368.792969 240.804688 C 368.625 242.550781 368.523438 244.296875 368.214844 245.933594 L 383.433594 244.957031 C 383.367188 243.738281 382.984375 241.332031 382.597656 239.027344 C 382.117188 236.183594 381.609375 233.519531 381.609375 233.519531 C 381.609375 233.519531 385.140625 226.402344 389.09375 220.332031 L 388.570312 213.121094" style="fill: rgb(246, 148, 68);"></path></g><g id="__id3683_sjdqzxh49r"><path d="M 24.597656 208.253906 C 25.128906 213.082031 28.03125 223.484375 28.03125 223.484375 L 28.988281 223.382812 C 28.988281 223.382812 30.96875 221.792969 31.894531 221.308594 L 33.152344 222.144531 C 31.984375 229.289062 31.851562 236.914062 30.875 244.050781 C 30.875 244.050781 33.171875 247.375 34.96875 250.179688 C 42.0625 241.703125 47.441406 231.457031 53.03125 222.042969 C 53.71875 220.898438 54.367188 219.738281 55.046875 218.589844 C 53.988281 211.503906 52.792969 204.460938 51.484375 197.414062 C 38.980469 193.609375 26.277344 190.335938 13.75 186.59375 C 12.015625 188.269531 3.792969 199.070312 1.324219 202.152344 C 1.324219 202.152344 2.972656 204.671875 5.597656 208.660156 L 5.625 208.472656 L 10.949219 201.164062 C 14.519531 203.511719 18.382812 205.027344 22.113281 206.964844 L 24.597656 208.253906" style="fill: rgb(246, 148, 68);"></path></g><g id="__id3684_sjdqzxh49r"><path d="M 94.867188 377.894531 L 91.828125 325.269531 L 77.824219 302.65625 L 46.769531 313.972656 L 41.148438 314.839844 C 31.746094 331.296875 11.269531 392.195312 11.269531 392.195312 C 12.207031 411.476562 34.410156 483.992188 34.410156 483.992188 L 49.09375 481.207031 L 47.148438 402.324219 L 58.386719 369.820312 L 64.601562 402.65625 L 128.304688 466.945312 L 128.363281 466.90625 L 141.667969 458.730469 L 141.527344 458.492188 L 94.867188 377.894531" style="fill: rgb(246, 148, 68);"></path></g><g id="__id3685_sjdqzxh49r"><path d="M 393.332031 258.183594 C 393.242188 257.863281 393.183594 257.613281 393.113281 257.394531 C 392.992188 256.882812 392.925781 256.632812 392.925781 256.632812 L 390.269531 250.25 L 385.917969 239.769531 L 365.917969 241.347656 C 365.539062 241.464844 365.132812 241.605469 364.710938 241.753906 C 358.3125 244.011719 347.347656 249.621094 347.347656 249.621094 L 340.96875 258.683594 L 340.488281 259.378906 L 315.789062 294.46875 L 341.46875 306.125 L 351.011719 293.246094 L 342.765625 329.789062 C 342.6875 330.21875 343.582031 330.519531 345.160156 330.710938 C 354.351562 331.875 386.765625 329.699219 386.765625 329.699219 C 386.765625 329.699219 394.851562 324.757812 401.734375 321.195312 C 404.421875 319.808594 406.914062 318.621094 408.691406 318.035156 C 405.628906 306.1875 395.449219 266.527344 393.332031 258.183594" style="fill: rgb(236, 226, 7);"></path></g><g id="__id3686_sjdqzxh49r"><path d="M 141.9375 459.789062 L 137.425781 466.394531 L 127.941406 469.707031 L 126.074219 470.367188 L 125.585938 473.988281 L 118.921875 484.539062 L 123.492188 488.363281 L 150.988281 469.976562 L 148.992188 464.160156 C 146.664062 463.035156 144.300781 461.515625 141.9375 459.789062" style="fill: rgb(236, 226, 7);"></path></g><g id="__id3687_sjdqzxh49r"><path d="M 42.960938 488.332031 L 33.132812 486.296875 L 31.1875 485.898438 L 28.910156 488.753906 L 17.765625 494.371094 L 19.71875 500 L 52.753906 498.386719 L 54.042969 492.367188 C 52.625 490.199219 51.375 487.675781 50.230469 484.992188 L 42.960938 488.332031" style="fill: rgb(236, 226, 7);"></path></g><g id="__id3688_sjdqzxh49r"><path d="M 87.574219 316.597656 C 86.304688 313.851562 85.050781 311.136719 83.84375 308.671875 C 83.722656 308.382812 83.59375 308.105469 83.433594 307.855469 C 82.207031 305.261719 81.035156 303.015625 80.03125 301.347656 C 79.769531 301.085938 79.519531 300.867188 79.261719 300.648438 C 79.082031 300.429688 78.851562 300.242188 78.660156 300.082031 C 78.429688 299.871094 78.203125 299.660156 77.960938 299.453125 C 76.316406 298.015625 74.511719 296.640625 72.632812 295.308594 C 72.523438 295.230469 72.414062 295.152344 72.304688 295.082031 C 72.195312 295 72.082031 294.933594 71.972656 294.871094 C 71.445312 294.503906 70.90625 294.132812 70.367188 293.765625 C 69.351562 293.074219 68.324219 292.398438 67.273438 291.71875 C 66.65625 291.320312 66.027344 290.917969 65.398438 290.511719 C 65.289062 290.449219 65.179688 290.371094 65.070312 290.300781 C 64.957031 290.230469 64.847656 290.160156 64.738281 290.101562 C 63.570312 289.34375 62.363281 288.554688 61.164062 287.796875 L 61.175781 287.785156 L 71.664062 272.722656 L 71.6875 272.695312 L 75.699219 266.914062 L 74.53125 266.21875 L 73.863281 265.839844 L 67.398438 262.046875 L 66.726562 261.636719 L 60.0625 257.726562 L 59.371094 257.304688 L 52.386719 253.234375 L 51.6875 252.796875 L 44.175781 248.40625 L 43.414062 247.964844 L 35.691406 249.113281 L 34.761719 249.851562 L 24.453125 257.984375 L 23.542969 258.703125 L 23.964844 260.96875 L 23.042969 262.527344 L 20.800781 266.46875 L 21.238281 271.050781 L 21.308594 271.90625 L 21.996094 279.042969 L 22.066406 279.863281 L 22.753906 287.195312 L 22.824219 288.015625 L 23.539062 295.429688 L 23.609375 296.257812 L 24.300781 303.742188 L 24.402344 304.53125 L 25.089844 312.085938 L 25.1875 312.84375 L 25.875 320.449219 L 25.976562 321.238281 L 26.703125 328.824219 L 26.765625 329.609375 L 27.492188 337.253906 L 27.554688 338.042969 L 28.191406 344.710938 L 63.671875 341.117188 C 63.671875 341.117188 76.886719 335.46875 86.058594 331.109375 C 88.980469 329.71875 93.183594 324.789062 93.183594 324.789062 L 87.984375 317.425781 C 87.980469 317.425781 87.703125 316.855469 87.574219 316.597656" style="fill: rgb(236, 226, 7);"></path></g><g id="__id3689_sjdqzxh49r"><path d="M 141.664062 458.730469 L 128.359375 466.90625 L 128.371094 466.925781 L 127.941406 468.710938 L 137.425781 465.398438 L 141.933594 458.792969 C 141.792969 458.691406 141.664062 458.59375 141.523438 458.492188 L 141.664062 458.730469" style="fill: rgb(65, 85, 174);"></path></g><g id="__id3690_sjdqzxh49r"><path d="M 34.410156 483.992188 L 33.132812 485.300781 L 42.960938 487.335938 L 50.226562 483.992188 C 49.839844 483.085938 49.460938 482.144531 49.089844 481.210938 L 34.410156 483.992188" style="fill: rgb(65, 85, 174);"></path></g><g id="__id3691_sjdqzxh49r"><path d="M 24.449219 257.984375 L 34.761719 249.851562 C 32.992188 247.128906 30.875 244.050781 30.875 244.050781 C 31.855469 236.914062 31.984375 229.292969 33.152344 222.148438 L 31.894531 221.308594 C 30.96875 221.796875 28.988281 223.382812 28.988281 223.382812 L 28.03125 223.484375 C 28.03125 223.484375 25.128906 213.085938 24.601562 208.253906 L 22.113281 206.96875 C 18.382812 205.03125 14.519531 203.515625 10.949219 201.167969 L 5.628906 208.472656 L 5.601562 208.664062 L 3.652344 220.230469 L 4.441406 231.335938 L 0 236.964844 L 6.328125 246.328125 L 15.238281 254.410156 C 15.238281 254.410156 16.347656 254.269531 17.886719 254.269531 C 19.582031 254.269531 21.808594 254.441406 23.675781 255.148438 C 23.832031 256.117188 24.109375 257.066406 24.449219 257.984375" style="fill: rgb(65, 85, 174);"></path></g><g id="__id3692_sjdqzxh49r"><path d="M 130.945312 356.414062 C 131.308594 356.296875 124.367188 338.832031 124.367188 338.832031 C 124.367188 338.832031 119.050781 333.183594 118.550781 332.492188 C 113.941406 324.328125 94.019531 291.945312 91.90625 289.761719 C 90.847656 288.660156 81.265625 280.628906 71.664062 272.726562 L 61.175781 287.785156 C 62.460938 288.617188 63.742188 289.449219 65.027344 290.277344 C 64.929688 290.214844 64.832031 290.152344 64.734375 290.097656 L 64.007812 291.011719 L 47.144531 298.339844 L 24.304688 303.742188 L 24.398438 304.53125 L 47.394531 299.066406 L 64.417969 291.707031 L 65.398438 290.515625 C 65.398438 290.515625 65.402344 290.515625 65.402344 290.515625 C 66.03125 290.925781 66.65625 291.328125 67.277344 291.730469 C 68.324219 292.398438 69.351562 293.089844 70.371094 293.789062 C 70.910156 294.140625 71.433594 294.515625 71.957031 294.886719 L 68.652344 299.289062 L 49.957031 307.027344 L 25.097656 312.082031 L 25.191406 312.839844 L 50.175781 307.785156 L 69.066406 299.953125 L 69.160156 299.917969 L 72.589844 295.375 C 72.605469 295.390625 72.621094 295.40625 72.640625 295.417969 C 74.515625 296.746094 76.320312 298.234375 77.96875 299.671875 C 78.175781 299.847656 78.382812 300.023438 78.585938 300.195312 L 73.332031 307.53125 L 52.769531 315.746094 L 25.886719 320.449219 L 25.980469 321.242188 L 52.957031 316.503906 L 73.839844 308.199219 L 79.191406 300.757812 C 79.476562 301.046875 79.757812 301.371094 80.03125 301.785156 L 80.042969 301.785156 C 84.335938 308.773438 103.316406 333.59375 108.339844 340.351562 L 109.128906 341.597656 L 111.105469 352.484375 C 111.105469 352.484375 114.347656 351.605469 114.527344 347.117188 C 114.519531 347.117188 123.921875 358.691406 130.945312 356.414062" style="fill: rgb(65, 85, 174);"></path></g><g id="__id3693_sjdqzxh49r"><path d="M 23.039062 262.519531 L 44.171875 248.402344 L 43.414062 247.960938 L 23.957031 260.96875 L 23.039062 262.519531" style="fill: rgb(65, 85, 174);"></path></g><g id="__id3694_sjdqzxh49r"><path d="M 45.878906 258.601562 L 52.386719 253.234375 L 51.6875 252.789062 L 45.433594 257.972656 L 35.894531 263.5625 L 21.238281 271.050781 L 21.304688 271.902344 L 36.273438 264.230469 L 45.878906 258.601562" style="fill: rgb(65, 85, 174);"></path></g><g id="__id3695_sjdqzxh49r"><path d="M 50.488281 266.910156 L 60.0625 257.71875 L 59.363281 257.308594 L 50.046875 266.246094 L 38.738281 272.246094 L 21.996094 279.039062 L 22.058594 279.863281 L 39.054688 272.945312 L 50.488281 266.910156" style="fill: rgb(65, 85, 174);"></path></g><g id="__id3696_sjdqzxh49r"><path d="M 55.132812 275.183594 L 67.390625 262.046875 L 66.726562 261.636719 L 54.71875 274.496094 L 41.546875 280.9375 L 22.757812 287.191406 L 22.820312 288.011719 L 41.835938 281.664062 L 55.132812 275.183594" style="fill: rgb(65, 85, 174);"></path></g><g id="__id3697_sjdqzxh49r"><path d="M 59.777344 283.433594 L 74.527344 266.214844 L 73.863281 265.839844 L 59.363281 282.769531 L 44.359375 289.621094 L 23.546875 295.433594 L 23.609375 296.257812 L 44.613281 290.378906 L 59.777344 283.433594" style="fill: rgb(65, 85, 174);"></path></g><g id="__id3698_sjdqzxh49r"><path d="M 78.347656 316.46875 L 78.472656 316.441406 L 83.84375 308.671875 C 83.71875 308.386719 83.59375 308.105469 83.4375 307.851562 L 77.96875 315.777344 L 55.542969 324.433594 L 26.703125 328.824219 L 26.769531 329.613281 L 55.765625 325.1875 L 78.347656 316.46875" style="fill: rgb(65, 85, 174);"></path></g><g id="__id3699_sjdqzxh49r"><path d="M 82.609375 324.050781 L 58.355469 333.148438 L 27.492188 337.253906 L 27.558594 338.042969 L 58.546875 333.90625 L 83.027344 324.746094 L 83.148438 324.683594 L 87.984375 317.417969 C 87.824219 317.136719 87.699219 316.851562 87.574219 316.601562 L 82.609375 324.050781" style="fill: rgb(65, 85, 174);"></path></g><g clip-path="url(#__id3672_sjdqzxh49r)" id="__id3700_sjdqzxh49r"><path d="M 458.507812 463.355469 L 453.878906 460.613281 L 451.71875 468.8125 L 443.460938 476.015625 L 434.582031 476.03125 L 430.714844 485.824219 L 432.796875 487.339844 L 460.453125 469.195312 L 458.507812 463.355469" style="fill: rgb(65, 85, 174);"></path></g><g id="__id3701_sjdqzxh49r"><path d="M 354.972656 492.625 L 344.199219 494.648438 L 336.542969 490.15625 L 328.238281 496.640625 L 329.269531 499 L 362.308594 497.386719 L 363.589844 491.367188 L 360.988281 486.652344 L 354.972656 492.625" style="fill: rgb(65, 85, 174);"></path></g><g id="__id3702_sjdqzxh49r"><path d="M 356.9375 236.933594 L 364.710938 240.757812 C 365.128906 240.609375 365.535156 240.464844 365.917969 240.351562 L 368.859375 240.121094 C 369.027344 238.605469 369.296875 237.105469 369.839844 235.679688 C 367.414062 232.714844 362.902344 230.828125 362.902344 230.828125 L 359.21875 219.371094 L 358.421875 208.105469 L 365.074219 205.449219 L 369.957031 195.441406 L 377.550781 186.25 C 377.949219 195.613281 378.941406 204.902344 379.140625 214.273438 C 379.140625 215.183594 378.800781 219.253906 379.707031 219.933594 C 380.765625 220.613281 383.25 215.730469 384.367188 213.605469 C 385.257812 213.496094 387.722656 213.1875 388.570312 213.125 L 389.089844 220.339844 C 385.136719 226.410156 381.605469 233.523438 381.605469 233.523438 C 381.605469 233.523438 382.113281 236.191406 382.59375 239.035156 L 385.914062 238.777344 L 390.265625 249.253906 C 398.96875 249.226562 408.210938 247.039062 415.847656 245.742188 L 418.570312 246.519531 C 418.011719 238.457031 417.640625 230.480469 417.929688 222.085938 C 417.960938 214.292969 419.246094 203.765625 416.015625 196.371094 L 404.109375 181.808594 C 404.109375 181.808594 388.671875 178.734375 381.296875 178.734375 C 379.996094 178.734375 378.949219 178.832031 378.277344 179.054688 C 378.277344 179.054688 376.261719 179.960938 373.789062 181.046875 C 371.304688 182.125 368.359375 183.382812 366.515625 184.070312 C 362.042969 191.246094 357.941406 198.121094 352.769531 204.738281 C 348.800781 209.78125 343.46875 214.191406 340.976562 220.148438 L 340.726562 221.214844 C 346.277344 226.136719 352.882812 230.816406 356.9375 236.933594" style="fill: rgb(65, 85, 174);"></path></g><g id="__id3703_sjdqzxh49r"><path d="M 404.109375 377.894531 L 404.109375 373.660156 C 404.109375 361.597656 403.902344 336.785156 401.734375 320.199219 C 394.851562 323.761719 386.765625 328.703125 386.765625 328.703125 C 386.765625 328.703125 354.351562 330.878906 345.160156 329.710938 C 335.898438 344.539062 324.890625 361.9375 320.417969 375 C 321.355469 394.273438 319.273438 448.761719 322.554688 467.578125 L 321.160156 474.152344 C 339.015625 470.390625 357.355469 467.097656 374.753906 462.863281 L 356.429688 391.058594 L 367.476562 364.601562 L 371.789062 385.648438 L 410.9375 469.839844 C 410.9375 469.839844 419.414062 462.792969 425.519531 458.5625 C 439.621094 449.160156 448.5625 443.402344 448.5625 443.402344 L 404.109375 377.894531" style="fill: rgb(65, 85, 174);"></path></g><g id="__id3704_sjdqzxh49r"><path d="M 387.308594 242.148438 L 358 243.503906 C 357.351562 243.796875 356.703125 244.089844 356.0625 244.390625 L 387.632812 242.925781 L 387.308594 242.148438" style="fill: rgb(65, 85, 174);"></path></g><g id="__id3705_sjdqzxh49r"><path d="M 344.957031 252.011719 L 360.882812 252.925781 L 373.820312 252.679688 L 382.582031 251.96875 C 383.808594 251.785156 387.398438 251.234375 390.871094 250.675781 L 390.558594 249.921875 C 387.824219 250.363281 384.851562 250.828125 382.492188 251.1875 L 373.785156 251.890625 L 360.898438 252.136719 L 345.492188 251.246094 L 344.957031 252.011719" style="fill: rgb(65, 85, 174);"></path></g><g id="__id3706_sjdqzxh49r"><path d="M 372.679688 261.476562 L 384.367188 260.027344 C 384.71875 259.933594 388.851562 258.632812 393.339844 257.183594 C 393.242188 256.867188 393.179688 256.617188 393.117188 256.394531 C 388.507812 257.910156 384.238281 259.238281 384.179688 259.238281 L 372.617188 260.6875 L 355.433594 260.433594 L 340.964844 257.6875 L 340.492188 258.382812 L 355.339844 261.226562 L 372.679688 261.476562" style="fill: rgb(65, 85, 174);"></path></g><g id="__id3707_sjdqzxh49r"><path d="M 372.085938 280.089844 L 385.234375 278.25 C 385.675781 278.085938 391.753906 275.828125 397.535156 273.601562 C 397.46875 273.335938 397.402344 273.082031 397.339844 272.828125 C 391.398438 275.125 385.105469 277.460938 385.039062 277.492188 L 372.039062 279.304688 L 352.675781 278.8125 L 329.894531 273.414062 L 329.40625 274.105469 L 352.574219 279.589844 L 372.085938 280.089844" style="fill: rgb(65, 85, 174);"></path></g><g id="__id3708_sjdqzxh49r"><path d="M 371.503906 289.234375 L 386.105469 287.011719 C 386.589844 286.808594 393.175781 284.015625 399.5 281.261719 C 399.433594 281 399.359375 280.742188 399.300781 280.484375 C 392.785156 283.328125 385.960938 286.222656 385.894531 286.257812 L 371.457031 288.445312 L 349.925781 287.703125 L 324.703125 280.792969 L 324.21875 281.480469 L 349.808594 288.480469 L 371.503906 289.234375" style="fill: rgb(65, 85, 174);"></path></g><g id="__id3709_sjdqzxh49r"><path d="M 386.871094 295.808594 L 386.976562 295.773438 C 387.101562 295.714844 394.398438 292.289062 401.453125 288.917969 C 401.390625 288.660156 401.320312 288.398438 401.253906 288.140625 C 394.445312 291.394531 387.363281 294.71875 386.691406 295.035156 L 370.871094 297.585938 L 350.003906 296.703125 L 349.828125 297.476562 L 370.917969 298.371094 L 386.871094 295.808594" style="fill: rgb(65, 85, 174);"></path></g><g id="__id3710_sjdqzxh49r"><path d="M 347.214844 297.363281 L 347.773438 296.613281 L 347.121094 296.582031 L 319.507812 288.179688 L 319.027344 288.855469 L 346.9375 297.351562 L 347.214844 297.363281" style="fill: rgb(65, 85, 174);"></path></g><g id="__id3711_sjdqzxh49r"><path d="M 347.808594 306.414062 L 370.335938 307.507812 L 387.730469 304.574219 L 387.84375 304.535156 C 387.984375 304.464844 395.796875 300.484375 403.417969 296.570312 C 403.351562 296.308594 403.28125 296.046875 403.214844 295.785156 C 395.855469 299.566406 388.261719 303.4375 387.539062 303.808594 L 370.289062 306.726562 L 347.980469 305.648438 L 347.808594 306.414062" style="fill: rgb(65, 85, 174);"></path></g><g id="__id3712_sjdqzxh49r"><path d="M 345.792969 315.359375 L 369.753906 316.644531 L 388.59375 313.339844 L 388.714844 313.296875 C 388.714844 313.296875 397.125 308.714844 405.382812 304.214844 C 405.316406 303.953125 405.246094 303.6875 405.183594 303.421875 C 397.261719 307.738281 389.144531 312.164062 388.394531 312.570312 L 369.710938 315.859375 L 345.964844 314.589844 L 345.792969 315.359375" style="fill: rgb(65, 85, 174);"></path></g><g id="__id3713_sjdqzxh49r"><path d="M 343.769531 324.308594 L 369.171875 325.785156 L 389.449219 322.109375 L 389.578125 322.0625 C 389.730469 321.972656 398.597656 316.859375 407.351562 311.855469 C 407.285156 311.59375 407.214844 311.332031 407.144531 311.058594 C 398.679688 315.902344 390.050781 320.875 389.242188 321.34375 L 369.121094 325 L 343.941406 323.542969 L 343.769531 324.308594" style="fill: rgb(65, 85, 174);"></path></g><g id="__id3714_sjdqzxh49r"><path d="M 372.664062 270.953125 L 384.355469 269.488281 C 384.765625 269.359375 390.335938 267.636719 395.570312 265.925781 C 395.507812 265.671875 395.4375 265.40625 395.378906 265.160156 C 390.007812 266.910156 384.253906 268.695312 384.1875 268.71875 L 372.625 270.167969 L 355.421875 269.921875 L 335.09375 266.027344 L 334.597656 266.734375 L 355.34375 270.703125 L 372.664062 270.953125" style="fill: rgb(65, 85, 174);"></path></g></g></svg>